<svg xmlns="http://www.w3.org/2000/svg" version="1.1" xmlns:xlink="http://www.w3.org/1999/xlink" width="1000" height="1000"><g clip-path="url(#SvgjsClipPath1134)"><rect width="1000" height="1000" fill="#100000"></rect><g transform="matrix(7.775369573035019,0,0,7.775369573035019,100,165.6591083594942)"><svg xmlns="http://www.w3.org/2000/svg" version="1.1" xmlns:xlink="http://www.w3.org/1999/xlink" width="102.889" height="86" id="screenshot-f1961625-91bc-806a-8007-9790566854c9" viewBox="0 0 102.889 86" fill="none"><g id="shape-f1961625-91bc-806a-8007-9790566854c9"><g class="frame-container-wrapper"><g class="frame-container-blur"><g class="frame-container-shadows"><g fill="none"><g class="fills" id="fills-f1961625-91bc-806a-8007-9790566854c9"><rect rx="0" ry="0" x="0" y="0" width="100" height="85.99999999999994" transform="matrix(1.000000, 0.000000, 0.000000, 1.000000, 0.000000, 0.000000)" class="frame-background"></rect></g><g class="frame-children"><g id="shape-d7d0d80b-b123-8008-8007-9784ddbf2496"><g class="fills" id="fills-d7d0d80b-b123-8008-8007-9784ddbf2496"><path d="M8.309978485107422,45.999969482421875C6.6602020263671875,31.029052734375,12.15945816040039,33.093994140625,11.60953140258789,29.99658203125C11.05960464477539,26.89910888671875,11.60953140258789,1.603363037109375,18.208637237548828,4.1845703125C24.80774688720703,6.7657470703125,32.51678466796875,16.4786376953125,34.70640563964844,18.123046875C36.01140594482422,19.103057861328125,41.71244812011719,16.402374267578125,46.80476760864258,16.574310302734375C52.44194030761719,16.764678955078125,57.48642349243164,19.207977294921875,58.35320281982422,18.123046875C60.00297927856445,16.058074951171875,69.90164184570312,2.119598388671875,75.95082092285156,5.217041015625C82,8.314483642578125,82,27.931610107421875,82,27.931610107421875"></path></g><g id="strokes-4c91eb19-444e-805e-8007-b91a1daef797-d7d0d80b-b123-8008-8007-9784ddbf2496" class="strokes"><g class="stroke-shape"><path d="M8.309978485107422,45.999969482421875C6.6602020263671875,31.029052734375,12.15945816040039,33.093994140625,11.60953140258789,29.99658203125C11.05960464477539,26.89910888671875,11.60953140258789,1.603363037109375,18.208637237548828,4.1845703125C24.80774688720703,6.7657470703125,32.51678466796875,16.4786376953125,34.70640563964844,18.123046875C36.01140594482422,19.103057861328125,41.71244812011719,16.402374267578125,46.80476760864258,16.574310302734375C52.44194030761719,16.764678955078125,57.48642349243164,19.207977294921875,58.35320281982422,18.123046875C60.00297927856445,16.058074951171875,69.90164184570312,2.119598388671875,75.95082092285156,5.217041015625C82,8.314483642578125,82,27.931610107421875,82,27.931610107421875" style="fill: none; stroke-width: 5; stroke: rgb(21, 209, 223); stroke-opacity: 1; stroke-linecap: round;"></path></g></g></g><g id="shape-d7d0d80b-b123-8008-8007-9785f981f306"><g class="fills" id="fills-d7d0d80b-b123-8008-8007-9785f981f306"><rect rx="2.7508422742152163" ry="2.7508422742152163" x="2.252748589770384" y="52.39163821638522" transform="matrix(0.953571, -0.301167, 0.221671, 0.975121, -11.761885, 4.366287)" width="15.3799585106716" height="5.501684548430433" style="fill: rgb(21, 209, 223); fill-opacity: 1;"></rect></g></g><g id="shape-f1961625-91bc-806a-8007-978f81f0034c"><g class="fills" id="fills-f1961625-91bc-806a-8007-978f81f0034c"><rect rx="2.356020942408378" ry="2.356020942408378" x="57.65638843389246" y="46.30835031056802" transform="matrix(0.000000, 1.000000, -1.000000, 0.000000, 112.800497, -15.471754)" width="12.959474441115617" height="4.712041884816756" style="fill: rgb(21, 209, 223); fill-opacity: 1;"></rect></g></g><g id="shape-f1961625-91bc-806a-8007-978fd0cd0830"><g class="fills" id="fills-f1961625-91bc-806a-8007-978fd0cd0830"><rect rx="2.356020942408378" ry="2.356020942408378" x="60.85352179433494" y="46.30835031056802" transform="matrix(0.000000, 1.000000, -1.000000, 0.000000, 119.083219, -21.754477)" width="19.130652746408657" height="4.712041884816756" style="fill: rgb(21, 209, 223); fill-opacity: 1;"></rect></g></g><g id="shape-f1961625-91bc-806a-8007-978fde5693f2"><g class="fills" id="fills-f1961625-91bc-806a-8007-978fde5693f2"><rect rx="2.356020942408378" ry="2.356020942408378" x="62.10574404208414" y="46.925468141097326" transform="matrix(0.000000, 1.000000, -1.000000, 0.000000, 126.506620, -27.943642)" width="30.238773695936516" height="4.712041884816756" style="fill: rgb(21, 209, 223); fill-opacity: 1;"></rect></g></g><g id="shape-f1961625-91bc-806a-8007-978fe87fc4cd"><g class="fills" id="fills-f1961625-91bc-806a-8007-978fe87fc4cd"><rect rx="2.356020942408378" ry="2.356020942408378" x="75.60676527931452" y="46.3083503105679" transform="matrix(0.000000, 1.000000, -1.000000, 0.000000, 133.219345, -35.890603)" width="17.896417085350038" height="4.712041884816756" style="fill: rgb(21, 209, 223); fill-opacity: 1;"></rect></g></g><g id="shape-f1961625-91bc-806a-8007-978ff791cd07"><g class="fills" id="fills-f1961625-91bc-806a-8007-978ff791cd07"><rect rx="2.356020942408378" ry="2.356020942408378" x="80.65525213134484" y="46.30835031056802" transform="matrix(0.000000, 1.000000, -1.000000, 0.000000, 139.502068, -42.173325)" width="20.36488840746739" height="4.712041884816756" style="fill: rgb(21, 209, 223); fill-opacity: 1;"></rect></g></g><g id="shape-f1961625-91bc-806a-8007-979002dfe3d7"><g class="fills" id="fills-f1961625-91bc-806a-8007-979002dfe3d7"><rect rx="2.356020942408378" ry="2.356020942408378" x="92.39847749809242" y="46.30835031056762" transform="matrix(0.000000, 1.000000, -1.000000, 0.000000, 146.308350, -48.979608)" width="10.491003118998378" height="4.712041884816756" style="fill: rgb(21, 209, 223); fill-opacity: 1;"></rect></g></g><g id="shape-d7d0d80b-b123-8008-8007-978667452fd8"><g class="fills" id="fills-d7d0d80b-b123-8008-8007-978667452fd8"><rect rx="2.677990174509034" ry="2.677990174509034" x="6.4649761254059115" y="62.36773309989411" transform="matrix(0.826727, -0.562604, 0.439886, 0.898054, -26.114541, 14.742502)" width="15.904988434920476" height="5.355980349018068" style="fill: rgb(21, 209, 223); fill-opacity: 1;"></rect></g></g><g id="shape-d7d0d80b-b123-8008-8007-9788977ea077" rx="0" ry="0"><g id="shape-d7d0d80b-b123-8008-8007-9787e0754c3c"><g class="fills" id="fills-d7d0d80b-b123-8008-8007-9787e0754c3c"><path d="M24.16347312927246,80.67111206054688C24.16347312927246,80.67111206054688,21.545673370361328,70.18014526367188,22.069232940673828,69.56301879882812C22.592792510986328,68.94589233398438,31.493316650390625,68.32876586914062,31.493316650390625,68.32876586914062"></path></g><g id="strokes-4c91eb19-444e-805e-8007-b91a1db28c9e-d7d0d80b-b123-8008-8007-9787e0754c3c" class="strokes"><g class="stroke-shape"><path d="M24.16347312927246,80.67111206054688C24.16347312927246,80.67111206054688,21.545673370361328,70.18014526367188,22.069232940673828,69.56301879882812C22.592792510986328,68.94589233398438,31.493316650390625,68.32876586914062,31.493316650390625,68.32876586914062" style="fill: none; stroke-width: 5; stroke: rgb(21, 209, 223); stroke-opacity: 1; stroke-linecap: round;"></path></g></g></g><g id="shape-d7d0d80b-b123-8008-8007-9786a9b6d08d"><g class="fills" id="fills-d7d0d80b-b123-8008-8007-9786a9b6d08d"><path d="M25.734153747558594,73.26571655273438C43.01163864135742,88.07656860351562,67.61896514892578,73.26571655273438,67.61896514892578,73.26571655273438"></path></g><g id="strokes-4c91eb19-444e-805e-8007-b91a1db2e443-d7d0d80b-b123-8008-8007-9786a9b6d08d" class="strokes"><g class="stroke-shape"><path d="M25.734153747558594,73.26571655273438C43.01163864135742,88.07656860351562,67.61896514892578,73.26571655273438,67.61896514892578,73.26571655273438" style="fill: none; stroke-width: 5; stroke: rgb(21, 209, 223); stroke-opacity: 1; stroke-linecap: round;"></path></g></g></g><g id="shape-d7d0d80b-b123-8008-8007-97899595848c"><g class="fills" id="fills-d7d0d80b-b123-8008-8007-97899595848c"><path d="M62.38336944580078,68.32876586914062C62.38336944580078,68.32876586914062,71.28388977050781,68.32876586914062,71.80744934082031,69.56301879882812C72.33100891113281,70.7972412109375,69.71321105957031,80.67111206054688,69.71321105957031,80.67111206054688"></path></g><g id="strokes-4c91eb19-444e-805e-8007-b91a1db33082-d7d0d80b-b123-8008-8007-97899595848c" class="strokes"><g class="stroke-shape"><path d="M62.38336944580078,68.32876586914062C62.38336944580078,68.32876586914062,71.28388977050781,68.32876586914062,71.80744934082031,69.56301879882812C72.33100891113281,70.7972412109375,69.71321105957031,80.67111206054688,69.71321105957031,80.67111206054688" style="fill: none; stroke-width: 5; stroke: rgb(21, 209, 223); stroke-opacity: 1; stroke-linecap: round;"></path></g></g></g></g><g id="shape-f1961625-91bc-806a-8007-978f6b531501" width="100" height="100" rx="0" ry="0" style="fill: rgb(0, 0, 0);"><g id="shape-f1961625-91bc-806a-8007-978f6b53bbff" style="display: none;"><g class="fills" id="fills-f1961625-91bc-806a-8007-978f6b53bbff"><rect width="34.03141361256543" height="40.11265898440553" x="30" transform="matrix(1.000000, 0.000000, 0.000000, 1.000000, 0.000000, 0.000000)" style="fill: rgb(21, 209, 223); fill-opacity: 1;" ry="0" fill="none" rx="0" y="25"></rect></g></g><g id="shape-f1961625-91bc-806a-8007-978f6b53dbe2"><g class="fills" id="fills-f1961625-91bc-806a-8007-978f6b53dbe2"><path d="M36.80628204345703,29.813507080078125C36.80628204345703,27.941558837890625,37.60034942626953,27.540435791015625,39.188480377197266,28.610107421875L57.90576171875,41.8472900390625C59.26701736450195,42.916961669921875,59.26701736450195,43.986663818359375,57.90576171875,45.05633544921875L39.188480377197266,58.293487548828125C37.60034942626953,59.363189697265625,36.80628204345703,58.962066650390625,36.80628204345703,57.090118408203125Z" style="fill: rgb(21, 209, 223); fill-opacity: 1;"></path></g></g></g></g></g></g></g></g></g></svg></g></g><defs><clipPath id="SvgjsClipPath1134"><rect width="1000" height="1000" x="0" y="0" rx="350" ry="350"></rect></clipPath></defs></svg>